<?xml version="1.0" encoding="UTF-8" standalone="no"?>
<!DOCTYPE svg PUBLIC "-//W3C//DTD SVG 1.1//EN" "http://www.w3.org/Graphics/SVG/1.1/DTD/svg11.dtd">

<!-- Created with Vectornator (http://vectornator.io/) -->
<svg height="100%" stroke-miterlimit="10" style="fill-rule:nonzero;clip-rule:evenodd;stroke-linecap:round;stroke-linejoin:round;" version="1.1" viewBox="0 0 881 130" width="100%" xml:space="preserve" xmlns="http://www.w3.org/2000/svg" xmlns:vectornator="http://vectornator.io" xmlns:xlink="http://www.w3.org/1999/xlink">
<metadata>
<vectornator:setting key="IsTimeLapseWatermarkDisabled" value="false"/>
<vectornator:setting key="UndoHistoryDisabled" value="true"/>
<vectornator:setting key="VNDimensionsVisible" value="true"/>
<vectornator:setting key="VNSnapToGuides" value="true"/>
<vectornator:setting key="WDCMYKEnabledKey" value="false"/>
<vectornator:setting key="WDDisplayWhiteBackground" value="false"/>
<vectornator:setting key="WDDynamicGuides" value="false"/>
<vectornator:setting key="WDGuidesVisible" value="true"/>
<vectornator:setting key="WDIsolateActiveLayer" value="false"/>
<vectornator:setting key="WDOutlineMode" value="false"/>
<vectornator:setting key="WDRulersVisible" value="true"/>
<vectornator:setting key="WDSnapToEdges" value="false"/>
<vectornator:setting key="WDSnapToGrid" value="false"/>
<vectornator:setting key="WDSnapToPoints" value="false"/>
<vectornator:setting key="WDUnits" value="Points"/>
</metadata>
<defs/>
<g id="Untitled" vectornator:layerName="Untitled">
<g opacity="1">
<path d="M67.952 0L83.993 49.37L135.904 49.37L93.907 79.882L109.949 129.252L67.952 98.74L25.955 129.252L41.996 79.882L0 49.37L51.9109 49.37L67.952 0Z" fill="#ffffff" fill-rule="evenodd" opacity="1" stroke="none"/>
<path d="M254.766 0L270.807 49.37L322.718 49.37L280.721 79.882L296.763 129.252L254.766 98.74L212.769 129.252L228.81 79.882L186.814 49.37L238.725 49.37L254.766 0Z" fill="#ffffff" fill-rule="evenodd" opacity="1" stroke="none"/>
<path d="M440.719 0L456.76 49.37L508.671 49.37L466.674 79.882L482.716 129.252L440.719 98.74L398.722 129.252L414.763 79.882L372.767 49.37L424.678 49.37L440.719 0Z" fill="#ffffff" fill-rule="evenodd" opacity="1" stroke="none"/>
<path d="M626.656 0L642.697 49.37L694.608 49.37L652.611 79.882L668.653 129.252L626.656 98.74L584.659 129.252L600.7 79.882L558.704 49.37L610.615 49.37L626.656 0Z" fill="#ffffff" fill-rule="evenodd" opacity="1" stroke="none"/>
<path d="M812.533 0L828.574 49.37L880.485 49.37L838.488 79.882L854.53 129.252L812.533 98.74L770.536 129.252L786.577 79.882L744.581 49.37L796.492 49.37L812.533 0Z" fill="#ffffff" fill-rule="evenodd" opacity="1" stroke="none"/>
</g>
</g>
</svg>
