<?xml version="1.0" encoding="UTF-8" standalone="no"?>
<!DOCTYPE svg PUBLIC "-//W3C//DTD SVG 1.1//EN" "http://www.w3.org/Graphics/SVG/1.1/DTD/svg11.dtd">

<!-- Created with Vectornator (http://vectornator.io/) -->
<svg height="100%" stroke-miterlimit="10" style="fill-rule:nonzero;clip-rule:evenodd;stroke-linecap:round;stroke-linejoin:round;" version="1.1" viewBox="0 0 2880 1800" width="100%" xml:space="preserve" xmlns="http://www.w3.org/2000/svg" xmlns:vectornator="http://vectornator.io" xmlns:xlink="http://www.w3.org/1999/xlink">
<metadata>
<vectornator:setting key="IsTimeLapseWatermarkDisabled" value="false"/>
<vectornator:setting key="UndoHistoryDisabled" value="true"/>
<vectornator:setting key="VNDimensionsVisible" value="true"/>
<vectornator:setting key="VNSnapToGuides" value="true"/>
<vectornator:setting key="WDCMYKEnabledKey" value="false"/>
<vectornator:setting key="WDDisplayWhiteBackground" value="false"/>
<vectornator:setting key="WDDynamicGuides" value="false"/>
<vectornator:setting key="WDGuidesVisible" value="true"/>
<vectornator:setting key="WDIsolateActiveLayer" value="false"/>
<vectornator:setting key="WDOutlineMode" value="false"/>
<vectornator:setting key="WDRulersVisible" value="true"/>
<vectornator:setting key="WDSnapToEdges" value="false"/>
<vectornator:setting key="WDSnapToGrid" value="true"/>
<vectornator:setting key="WDSnapToPoints" value="true"/>
<vectornator:setting key="WDUnits" value="Pixels"/>
</metadata>
<defs>
<clipPath id="TextBounds">
<rect height="547.88" width="2518.48" x="195.603" y="789.747"/>
</clipPath>
<filter color-interpolation-filters="sRGB" filterUnits="userSpaceOnUse" height="1663.64" id="Filter" width="7575.45" x="0" y="231.867">
<feDropShadow dx="-3.6732e-05" dy="10" flood-color="#141414" flood-opacity="0.666574" height="1663.64" stdDeviation="5" width="7575.45"/>
</filter>
<filter color-interpolation-filters="sRGB" filterUnits="userSpaceOnUse" height="1730.51" id="Filter_2" width="8610.16" x="0" y="0">
<feDropShadow dx="-3.6732e-05" dy="10" flood-color="#cbcbcb" flood-opacity="0.265175" height="1730.51" stdDeviation="5" width="8610.16"/>
</filter>
</defs>
<g id="Layer-3" vectornator:layerName="Layer 3">
<g opacity="0.792252">
<path d="M1442.08-132.526L367.168 818.355L367.168 1231.78L367.168 1645.2L1442.08 694.328L2516.99 1645.2L2516.99 1231.78L2516.99 818.355L1442.08-132.526Z" fill="#ffdd09" fill-rule="evenodd" opacity="1" stroke="none"/>
<path d="M2641.01 1769.23L2641.01 1355.81L2641.01 942.383L2516.99 830.758L2516.99 1231.78L2516.99 1645.2" fill="#fd9808" fill-rule="evenodd" opacity="1" stroke="none"/>
<path d="M367.168 1645.2L367.168 1231.78L367.168 830.758L243.14 942.383L243.14 1355.81L243.14 1769.23" fill="#ffffff" fill-rule="evenodd" opacity="1" stroke="none"/>
<g opacity="1">
<path d="M2641.01 1810.58C2632.74 1810.58 2620.34 1806.44 2612.08 1798.17L1442.08 752.204L272.083 1802.31C259.681 1810.58 243.145 1814.71 226.605 1806.44C210.07 1802.31 201.799 1785.77 201.799 1769.23L201.799 1355.81C201.799 1343.4 205.932 1331 214.202 1326.87L1413.14 251.96C1429.67 239.557 1454.48 239.557 1466.88 251.96L2665.82 1326.87C2674.09 1335.14 2678.22 1347.54 2678.22 1355.81L2678.22 1769.23C2678.22 1785.77 2669.95 1802.31 2653.42 1806.44C2653.42 1810.58 2645.15 1810.58 2641.01 1810.58ZM1442.08 652.982C1450.35 652.982 1462.75 657.114 1471.02 665.384L2599.67 1678.28L2599.67 1376.48L1442.08 338.78L284.486 1376.48L284.486 1678.28L1413.14 665.384C1421.4 657.119 1433.81 652.982 1442.08 652.982Z" fill="#110e0e" fill-rule="evenodd" opacity="1" stroke="none"/>
<path d="M2641.01 1397.15C2632.74 1397.15 2620.34 1393.02 2612.08 1384.75L1442.08 338.78L272.083 1388.88C259.681 1397.15 243.145 1401.29 226.605 1393.02C210.07 1388.88 201.799 1372.34 201.799 1355.81L201.799 942.383C201.799 929.98 205.932 917.577 214.202 913.445L586.286 578.57C602.821 562.034 627.626 566.167 644.167 582.703C660.707 599.238 656.57 624.043 640.034 640.584L284.486 963.056L284.486 1264.86L1413.14 251.96C1429.67 239.557 1454.48 239.557 1466.88 251.96L2599.67 1264.86L2599.67 963.056L1442.08-74.6446L871.549 438.002C855.014 454.537 830.208 450.405 813.668 433.869C797.133 417.334 801.265 392.528 817.801 375.988L1417.27-161.464C1433.81-173.867 1458.61-173.867 1471.02-161.464L2669.95 913.44C2678.22 921.71 2682.35 934.113 2682.35 942.378L2682.35 1355.8C2682.35 1372.34 2674.08 1388.88 2657.55 1393.01C2653.42 1397.15 2645.15 1397.15 2641.01 1397.15Z" fill="#110e0e" fill-rule="evenodd" opacity="1" stroke="none"/>
<path d="M772.327 500.016C772.327 475.21 755.792 458.675 730.986 458.675C706.181 458.675 689.645 475.21 689.645 500.016C689.645 524.821 706.181 541.357 730.986 541.357C755.792 541.357 772.327 520.689 772.327 500.016" fill="#110e0e" fill-rule="evenodd" opacity="1" stroke="none"/>
</g>
</g>
</g>
<g id="Layer-4" vectornator:layerName="Layer 4"/>
<g id="Layer-1" vectornator:layerName="Layer 1">
<g fill="#00db71" filter="url(#Filter)" opacity="1" stroke="none" vectornator:shadowAngle="1.5708" vectornator:shadowColor="#141414" vectornator:shadowOffset="10" vectornator:shadowOpacity="0.666574" vectornator:shadowRadius="10">
<path clip-path="url(#TextBounds)" d="M605.444 966.383L590.284 1050.94L557.325 1051.12L556.537 996.682L551.361 987.677C544.837 985.271 538.846 983.514 533.387 982.405C527.928 981.295 522.92 980.753 518.363 980.778C500.297 980.878 483.672 984.021 468.488 990.208C453.303 996.395 439.804 1005.63 427.99 1017.9C411.482 1034.92 398.698 1055.86 389.639 1080.73C380.579 1105.6 376.129 1132.36 376.286 1161.01C376.472 1194.86 385.244 1221.3 402.602 1240.33C419.959 1259.36 443.775 1268.79 474.048 1268.62C478.605 1268.6 483.242 1268.29 487.959 1267.69C492.676 1267.1 497.553 1266.13 502.592 1264.8L511.82 1255.97L534.672 1193.83L568.119 1193.64L552.481 1280.16C535.099 1286.11 517.749 1290.68 500.432 1293.87C483.115 1297.06 466.319 1298.7 450.043 1298.79C407.075 1299.02 372.54 1286.19 346.436 1260.29C320.333 1234.39 307.164 1199.96 306.927 1156.99C306.794 1132.74 310.572 1109.53 318.263 1087.35C325.954 1065.17 337.557 1044.11 353.072 1024.17C371.175 1001.12 393.903 983.009 421.256 969.838C448.609 956.666 477.259 949.998 507.206 949.833C522.831 949.747 538.708 951.084 554.837 953.844C570.965 956.604 587.834 960.783 605.444 966.383Z" fill-rule="evenodd"/>
<path clip-path="url(#TextBounds)" d="M874.882 1081.85C874.703 1049.29 868.093 1023.86 855.052 1005.54C842.012 987.217 824.099 978.12 801.313 978.245C786.176 978.328 771.92 983.168 758.545 992.763C745.17 1002.36 733.08 1016.3 722.276 1034.59C711.631 1052.39 703.36 1072.54 697.461 1095.03C691.563 1117.52 688.676 1140.16 688.802 1162.95C688.974 1194.36 695.908 1219.51 709.603 1238.4C723.297 1257.28 741.294 1266.67 763.591 1266.54C778.565 1266.46 792.943 1261.54 806.724 1251.78C820.505 1242.02 832.797 1227.91 843.601 1209.46C853.6 1192.64 861.345 1173.03 866.837 1150.62C872.329 1128.21 875.011 1105.28 874.882 1081.85ZM805.786 948.191C847.452 947.962 881.091 960.472 906.702 985.722C932.313 1010.97 945.232 1044.19 945.459 1085.36C945.599 1110.92 941.789 1135.68 934.026 1159.65C926.264 1183.62 915.031 1205.32 900.327 1224.77C882.55 1247.98 861.449 1265.8 837.021 1278.22C812.594 1290.65 786.301 1296.94 758.144 1297.09C716.966 1297.32 683.694 1284.76 658.326 1259.43C632.958 1234.1 620.16 1200.52 619.929 1158.69C619.789 1133.14 623.56 1108.54 631.242 1084.9C638.925 1061.25 650.198 1039.46 665.063 1019.52C681.705 997.295 702.402 979.888 727.155 967.3C751.907 954.713 778.117 948.343 805.786 948.191Z" fill-rule="evenodd"/>
<path clip-path="url(#TextBounds)" d="M1004.31 953.69L1114.66 953.083L1114.72 965.046L1218.59 1206.91L1259.85 985.244L1253.96 978.685L1221.47 975.934L1221.34 952.496L1335.84 951.867L1335.97 975.304L1304 977.921L1295.98 984.557L1241.01 1287.84L1189.5 1288.13L1073.02 1017.77L1029.39 1253.12L1034.07 1261.39L1067.05 1264.39L1067.19 1288.8L953.173 1289.43L953.039 1265.01L985.492 1261.66L992.531 1254.3L1041.84 986.443L1036.43 979.393L1004.43 977.128L1004.31 953.69Z" fill-rule="evenodd"/>
<path clip-path="url(#TextBounds)" d="M1360.26 951.732L1470.61 951.125L1470.67 963.088L1574.54 1204.95L1615.81 983.286L1609.91 976.726L1577.42 973.975L1577.29 950.538L1691.8 949.908L1691.92 973.345L1659.96 975.963L1651.94 982.599L1596.96 1285.88L1545.45 1286.17L1428.97 1015.81L1385.34 1251.16L1390.03 1259.43L1423 1262.43L1423.14 1286.84L1309.12 1287.47L1308.99 1263.05L1341.44 1259.7L1348.48 1252.34L1397.79 984.485L1392.38 977.435L1360.39 975.169L1360.26 951.732Z" fill-rule="evenodd"/>
<path clip-path="url(#TextBounds)" d="M1718.65 949.76L1966.21 948.399L1951.5 1026.36L1919.52 1026.54L1918.79 984.06L1913.38 976.522L1819.39 977.039L1797.59 1097.28L1858.38 1096.94L1865.91 1089.82L1878.16 1052.89L1906.72 1052.73L1885.39 1169.31L1858.29 1169.45L1859.06 1131.85L1852.67 1125.05L1792.13 1125.38L1767.94 1255.89L1880.73 1255.27L1887.78 1248.4L1906.52 1194.58L1939.48 1194.4L1923.62 1284.09L1667.03 1285.5L1666.9 1261.57L1699.35 1258.22L1706.39 1250.86L1755.46 984.471L1750.78 976.44L1718.78 974.174L1718.65 949.76Z" fill-rule="evenodd"/>
<path clip-path="url(#TextBounds)" d="M2284.86 957.144L2269.7 1041.7L2236.74 1041.88L2235.96 987.442L2230.78 978.438C2224.25 976.032 2218.26 974.275 2212.8 973.165C2207.35 972.056 2202.34 971.514 2197.78 971.539C2179.72 971.638 2163.09 974.782 2147.91 980.969C2132.72 987.156 2119.22 996.386 2107.41 1008.66C2090.9 1025.68 2078.12 1046.62 2069.06 1071.49C2060 1096.36 2055.55 1123.12 2055.7 1151.77C2055.89 1185.62 2064.66 1212.06 2082.02 1231.09C2099.38 1250.12 2123.19 1259.55 2153.47 1259.38C2158.02 1259.36 2162.66 1259.05 2167.38 1258.45C2172.09 1257.86 2176.97 1256.9 2182.01 1255.57L2191.24 1246.73L2214.09 1184.59L2247.54 1184.4L2231.9 1270.92C2214.52 1276.87 2197.17 1281.44 2179.85 1284.63C2162.53 1287.82 2145.74 1289.46 2129.46 1289.55C2086.49 1289.78 2051.96 1276.95 2025.85 1251.05C1999.75 1225.16 1986.58 1190.72 1986.35 1147.75C1986.21 1123.5 1989.99 1100.29 1997.68 1078.11C2005.37 1055.93 2016.97 1034.87 2032.49 1014.93C2050.59 991.88 2073.32 973.77 2100.67 960.598C2128.03 947.427 2156.68 940.759 2186.62 940.594C2202.25 940.508 2218.13 941.845 2234.25 944.604C2250.38 947.364 2267.25 951.544 2284.86 957.144Z" fill-rule="evenodd"/>
<path clip-path="url(#TextBounds)" d="M2314.59 946.482L2592.66 944.952L2576.79 1032.93L2543.1 1033.12L2543.78 979.157L2536.9 972.603L2480.26 972.915L2430.26 1246.88L2435.91 1253.68L2469.86 1256.67L2470 1281.08L2325.96 1281.87L2325.82 1257.46L2360.47 1254.58L2367.27 1246.73L2416.3 973.266L2359.9 973.577L2350.91 980.218L2333.14 1034.27L2298.23 1034.46L2314.59 946.482Z" fill-rule="evenodd"/>
</g>
</g>
<g id="Layer-2" vectornator:layerName="Layer 2">
<g filter="url(#Filter_2)" opacity="1" vectornator:shadowAngle="1.5708" vectornator:shadowColor="#cbcbcb" vectornator:shadowOffset="10" vectornator:shadowOpacity="0.265175" vectornator:shadowRadius="10">
<path d="M84.1047 329.843C134.278 303.416 192.974 302.592 246.751 314.495C287.499 325.051 330.742 349.981 346.127 394.75C361.511 446.331 358.185 501.356 358.254 554.734C309.398 554.509 260.542 554.734 211.755 554.659C210.722 510.34 213.972 465.796 209.745 421.626C210.646 391.081 160.542 391.306 161.235 421.85C155.968 491.324 159.988 561.247 158.747 630.946C159.925 675.407 155.761 720.483 162.282 764.578C166.301 782.246 186.814 783.593 199.773 777.604C209.745 769.893 209.96 755.744 210.999 743.841C212.593 710.751 211.346 677.661 211.762 644.571C260.68 644.421 309.537 644.496 358.462 644.496C357.007 694.73 361.165 748.183 341.622 795.122C309.19 853.142 241.554 874.928 181.956 872.914C129.427 872.39 69.2746 859.288 36.6344 810.395C13.2804 770.867 14.112 721.606 12.2409 676.396C12.5874 596.209 9.74615 515.88 14.8743 435.85C17.0226 389.809 46.2671 349.157 84.1047 329.843ZM437.117 317.191C508.08 316.142 579.112 316.217 650.075 317.191C677.033 498.811 705.861 680.131 733.304 861.677C687.636 861.519 641.967 861.677 596.299 861.519C592.279 827.531 589.299 793.386 584.379 759.48C568.087 759.779 551.739 759.779 535.446 759.697C538.357 729.302 541.545 698.915 544.594 668.512C554.643 668.512 564.622 668.438 574.67 668.438C565.523 590.654 558.662 512.496 547.643 435.012C533.368 577.403 516.181 719.427 500.519 861.669C454.719 861.602 408.843 861.602 363.036 861.602C387.429 680.139 413.209 498.811 437.117 317.191ZM758.39 316.666C806.97 316.517 855.618 316.592 904.266 316.592C904.336 461.828 904.266 606.989 904.336 752.218C934.065 752.375 963.795 752.3 993.524 752.3C993.663 788.759 993.594 825.135 993.594 861.602C915.216 861.684 836.838 861.527 758.46 861.602C758.321 679.982 758.46 498.287 758.39 316.666ZM1028.24 316.666C1076.96 316.517 1125.75 316.592 1174.53 316.592C1174.67 461.828 1174.53 606.989 1174.6 752.218C1204.06 752.375 1233.51 752.3 1262.96 752.3C1263.03 788.759 1263.03 825.135 1263.03 861.602L1028.31 861.602C1028.17 679.982 1028.31 498.287 1028.24 316.666ZM1444.46 316.666C1508.91 316.142 1573.42 316.666 1637.8 319.736C1671.69 322.356 1707.17 324.902 1737.39 343.393C1764.62 361.061 1781.32 394.525 1781.59 428.738C1786.04 523.516 1783.47 618.593 1783.75 713.446C1782.02 752.6 1785.83 798.124 1759.56 829.335C1730.31 858.225 1688.33 859.655 1650.84 861.302C1582.09 862.126 1513.28 861.302 1444.46 861.602C1444.39 679.982 1444.46 498.287 1444.46 316.666M1590.75 410.396C1590.82 530.029 1590.82 649.594 1590.75 769.219C1604.68 765.925 1625.88 768.995 1632.04 751.177C1640.64 711.874 1636.06 670.856 1637.24 630.721C1636.06 565.14 1639.81 499.26 1635.09 433.754C1633.09 410.172 1606.9 411.145 1590.75 410.396ZM1820.27 316.666C1868.78 316.509 1917.29 316.666 1965.8 316.592C1965.87 448.951 1965.8 581.311 1965.8 713.67C1966.08 731.189 1965.73 748.856 1968.78 766.15C1971 785.989 2003.36 785.091 2004.75 765.177C2008 748.115 2007.66 730.59 2007.86 713.296C2007.72 581.086 2007.93 448.876 2007.72 316.666C2056.23 316.442 2104.74 316.666 2153.32 316.592C2153.18 443.86 2153.75 571.129 2153.05 698.323C2151.52 733.36 2155.13 771.915 2135.87 802.384C2112.92 843.926 2068.37 865.038 2025.26 869.979C1970.66 876.717 1911.27 869.762 1865.53 834.269C1836.77 812.184 1821.73 774.153 1822.07 736.564C1818.6 596.658 1821.03 456.662 1820.27 316.666ZM2184.71 316.592L2505.08 316.592C2505.15 353.05 2505.08 389.434 2505.15 425.893C2476.18 425.893 2447.22 425.818 2418.33 425.968L2418.33 861.602C2369.39 861.602 2320.47 861.684 2271.55 861.527L2271.55 425.968C2242.72 425.893 2213.89 425.818 2185.06 425.968C2184.44 389.509 2184.78 353.05 2184.71 316.592ZM2531.35 316.592C2576.25 317.191 2621.17 315.319 2666.07 317.565C2693.65 415.412 2723.8 512.361 2752.34 609.909C2758.93 634.023 2769.74 657.597 2769.04 683.283C2768.7 743.691 2768.97 804.114 2768.84 864.521C2723.87 864.604 2678.95 864.604 2633.98 864.521C2633.98 806.584 2633.78 748.639 2634.12 690.62C2634.27 677.601 2633.49 664.342 2629.69 651.833C2596.71 540.21 2564.19 428.364 2531.35 316.592ZM2741.26 316.666C2785.88 316.509 2830.52 316.666 2875.15 316.592C2843.68 419.754 2812.64 523.067 2781.17 626.222C2761.21 557.354 2738.84 489.146 2720.74 419.747C2724.98 384.942 2734.75 351.104 2741.26 316.666Z" fill="#e4e4e4" fill-rule="evenodd" opacity="1" stroke="#dadada" stroke-linecap="butt" stroke-linejoin="round" stroke-width="10"/>
<path d="M1246.4 447.304C1272.04 435.101 1310.43 446.93 1314.66 480.319C1317.5 520.596 1317.78 561.472 1314.38 601.749C1306.62 648.082 1234.89 650.261 1223.6 605.342C1218.06 569.333 1221.17 532.275 1221.04 495.891C1220.2 476.202 1228.73 455.015 1246.4 447.304M1263.86 473.057C1260.81 517.602 1262.06 562.37 1263.1 606.989L1272.87 603.545C1277.24 562.445 1275.92 520.297 1273.77 479.047C1271.35 477.549 1266.36 474.555 1263.86 473.057ZM1329.84 446.93C1351.94 446.855 1373.98 446.78 1396.02 446.93C1395.95 459.282 1395.88 471.71 1395.88 484.137L1369.06 484.362C1369.06 496.265 1368.99 508.169 1368.99 520.072C1376.96 520.147 1385 520.222 1393.11 520.371C1393.11 531.751 1393.11 543.13 1393.18 554.509L1369.06 554.734C1369.06 581.161 1368.99 607.506 1369.06 633.948C1355.96 633.948 1342.93 634.023 1329.91 634.097C1329.84 571.653 1329.9 509.292 1329.84 446.93Z" fill="#e4e4e4" fill-rule="evenodd" opacity="1" stroke="#dadada" stroke-linecap="butt" stroke-linejoin="round" stroke-width="10"/>
<path d="M2821.43 812.903C2830.83 812.903 2838.58 816.092 2844.65 822.478C2850.73 828.871 2853.76 836.41 2853.76 845.102C2853.76 853.958 2850.68 861.542 2844.5 867.845C2838.33 874.149 2830.91 877.308 2822.25 877.308C2813.52 877.308 2806.09 874.164 2799.94 867.868C2793.8 861.572 2790.73 853.988 2790.73 845.102C2790.73 838.851 2792.35 833.108 2795.6 827.883C2798.86 822.65 2802.92 818.847 2807.81 816.466C2812.69 814.086 2817.24 812.903 2821.43 812.903ZM2822.99 819.161C2815.26 819.161 2808.99 821.774 2804.19 826.985C2799.39 832.195 2796.99 838.244 2796.99 845.109C2796.99 852.221 2799.47 858.323 2804.44 863.391C2809.4 868.467 2815.36 871.012 2822.33 871.012C2829.27 871.012 2835.22 868.467 2840.19 863.391C2845.15 858.315 2847.63 852.221 2847.63 845.109C2847.63 840.206 2846.38 835.684 2843.89 831.544C2841.39 827.404 2838.18 824.312 2834.26 822.253C2830.34 820.202 2826.58 819.161 2822.99 819.161ZM2808.39 862.305L2808.39 828.13L2824.23 828.13C2828.14 828.13 2831 829.058 2832.79 830.922C2834.57 832.787 2835.45 835.077 2835.45 837.795C2835.45 840.43 2834.71 842.549 2833.22 844.143C2831.72 845.745 2829.47 846.816 2826.45 847.393C2827.82 847.917 2828.91 848.643 2829.72 849.556C2830.53 850.462 2831.82 852.438 2833.57 855.463L2837.47 862.313L2829.12 862.313L2826.33 856.81C2824.66 853.531 2823.18 851.3 2821.91 850.103C2820.62 848.92 2818.95 848.321 2816.9 848.321L2815.14 848.321L2815.14 862.32L2808.39 862.32L2808.39 862.305ZM2815.14 842.878L2820.64 842.878C2823.42 842.878 2825.38 842.504 2826.55 841.77C2827.71 841.022 2828.3 839.809 2828.3 838.132C2828.36 836.738 2827.7 835.423 2826.58 834.726C2825.42 833.962 2823.68 833.595 2821.35 833.595L2815.14 833.595L2815.14 842.878L2815.14 842.878Z" fill="#e4e4e4" fill-rule="evenodd" opacity="1" stroke="#dadada" stroke-linecap="butt" stroke-linejoin="round" stroke-width="10"/>
</g>
</g>
</svg>
